<svg xmlns="http://www.w3.org/2000/svg" width="43.941" height="43.941" viewBox="0 0 43.941 43.941"><g transform="translate(0 0)" fill="#fff" stroke="#000" stroke-width="1"><circle cx="21.971" cy="21.971" r="21.971" stroke="none"/><circle cx="21.971" cy="21.971" r="21.471" fill="none"/></g><path d="M158.6,92.86l.016-9.589h-2.491a.588.588,0,0,1-.588-.586l-.012-3.091a.588.588,0,0,1,.588-.59H158.6V76.017c0-3.466,2.117-5.353,5.209-5.353h2.537a.588.588,0,0,1,.588.588v2.606a.588.588,0,0,1-.588.588H164.79c-1.682,0-2.007.8-2.007,1.972V79h3.695a.588.588,0,0,1,.584.657l-.366,3.091a.588.588,0,0,1-.584.519H162.8l-.016,9.589Z" transform="translate(-138.899 -59.461)"/></svg>