<svg xmlns="http://www.w3.org/2000/svg" width="116.981" height="39.84" viewBox="0 0 116.981 39.84"><path d="M161.514,966.107H128.831a7.089,7.089,0,0,1,7.089-7.089h22.746Z" transform="translate(-128.831 -959.018)" fill="#1f235f"/><path d="M170.875,1014.434H128.831a7.089,7.089,0,0,1,7.089-7.089h32.1Z" transform="translate(-128.831 -984.42)" fill="#1f235f"/><path d="M152.059,990.271H128.831a7.089,7.089,0,0,1,7.089-7.089h21.048v2.18a4.909,4.909,0,0,1-4.909,4.909" transform="translate(-128.831 -971.719)" fill="#1f235f"/><path d="M209.057,959.221h5.381l3.389,9.956,3.389-9.956h5.423l-5.127,13.685,3.813,9.618,8.516-23.387h4.147a1.482,1.482,0,0,1,1.371,2.044l-11.43,27.915h-4.915l-5.189-12.5-5.234,12.5h-4.915l-12.137-29.959h6.27l8.558,23.387,3.728-9.618Z" transform="translate(-163.895 -959.08)" fill="#6762df"/><path d="M291.524,997.95a8.426,8.426,0,0,1-3.009-.53,7.228,7.228,0,0,1-2.415-1.483,6.9,6.9,0,0,1-1.589-2.224,6.737,6.737,0,0,1-.572-2.8,6.158,6.158,0,0,1,.7-2.9,6.648,6.648,0,0,1,1.949-2.267,9.67,9.67,0,0,1,2.987-1.462,13.043,13.043,0,0,1,3.813-.529,16.449,16.449,0,0,1,2.9.254,11.863,11.863,0,0,1,2.521.72V983.46a4.454,4.454,0,0,0-1.25-3.389,5.2,5.2,0,0,0-3.707-1.186,9.814,9.814,0,0,0-3.474.636,16.114,16.114,0,0,0-3.474,1.864l-.713-1.479a2.517,2.517,0,0,1,1.158-3.364,16.148,16.148,0,0,1,7.055-1.6q4.787,0,7.436,2.352t2.648,6.8V991a2,2,0,0,0,.318,1.271,1.391,1.391,0,0,0,1.038.424v4.83a12.684,12.684,0,0,1-2.5.3,3.785,3.785,0,0,1-2.479-.721,3.091,3.091,0,0,1-1.08-1.907l-.127-1.229a9.826,9.826,0,0,1-3.6,2.966,10.341,10.341,0,0,1-4.533,1.017m1.61-4.152a7.393,7.393,0,0,0,2.732-.509,4.959,4.959,0,0,0,2.013-1.356,2.04,2.04,0,0,0,.932-1.61v-2.542a13.9,13.9,0,0,0-2.2-.614,11.893,11.893,0,0,0-2.288-.233,6.069,6.069,0,0,0-3.6,1,2.991,2.991,0,0,0-1.4,2.521,3.033,3.033,0,0,0,1.1,2.394,4,4,0,0,0,2.712.953" transform="translate(-210.358 -967.389)" fill="#6762df"/><path d="M331.834,1002.271a10.969,10.969,0,0,0,1.4.318,7.669,7.669,0,0,0,1.144.106,2.434,2.434,0,0,0,1.017-.212,2.185,2.185,0,0,0,.848-.741,7.271,7.271,0,0,0,.763-1.462q.381-.933.8-2.33l-7.6-19.24a2.166,2.166,0,0,1,2.015-2.962h1.152a2.124,2.124,0,0,1,2.007,1.426l5.52,15.86,4.569-14.794a3.535,3.535,0,0,1,3.378-2.492h2.731l-9.321,26.607a7.958,7.958,0,0,1-2.754,3.813,7.748,7.748,0,0,1-4.83,1.483,9.223,9.223,0,0,1-1.377-.106,8.818,8.818,0,0,1-1.462-.361Z" transform="translate(-234.597 -967.812)" fill="#6762df"/></svg>