<svg xmlns="http://www.w3.org/2000/svg" width="125" height="51.269" viewBox="0 0 125 51.269"><g transform="translate(-416 -6686.557)"><path d="M0,0V49.269" transform="translate(472.568 6687.557)" fill="none" stroke="#fff" stroke-linecap="round" stroke-width="2"/><g transform="translate(489.62 6702.004)"><g transform="translate(2.21)"><path d="M-5233.346-3876.267c-1.074-1.5-2.087-3.059-3.157-4.564a7.148,7.148,0,0,0-3.775-2.966,4.336,4.336,0,0,0-1.215-.174,4.332,4.332,0,0,0-1.213.174,7.144,7.144,0,0,0-3.774,2.967c-1.07,1.5-2.083,3.062-3.155,4.565-2.128,2.979-4.319,5.86-8.344,5.087.242.323.355.516.438.633,3.906,5.581,7.124,7.083,11.62.991,1.5-2.039,2.971-4.11,4.431-6.189,1.46,2.079,2.929,4.149,4.434,6.188,4.5,6.09,7.714,4.587,11.619-.995.082-.116.194-.31.437-.634C-5229.025-3870.408-5231.218-3873.289-5233.346-3876.267Z" transform="translate(5265.006 3883.971)" fill="#fff" fill-rule="evenodd"/><path d="M-5327.122-3864.643c3.006.635,4.946-.527,6.686-2.524,0,0-.118-.1-.118-.1a67.6,67.6,0,0,0-4.874-6.606c-2.422-2.752-5.467-2.463-8.075.346,1.065,1.771,3.758,5.115,4.873,6.879Z" transform="translate(5333.503 3876.555)" fill="#fff" fill-rule="evenodd"/><path d="M-4962.5-3864.713c-3.006.638-4.944-.525-6.685-2.522,0,0,.118-.1.116-.1a67.62,67.62,0,0,1,4.871-6.607c2.423-2.752,5.468-2.464,8.076.344-1.064,1.771-3.756,5.116-4.87,6.88Z" transform="translate(5003.079 3876.618)" fill="#fff" fill-rule="evenodd"/></g><g transform="translate(0 21.786)"><g transform="translate(0 0)"><path d="M-5351.3-3649.8h1.066l-1.426,4.929h-1.129l-.954-3.439-.98,3.44h-1.131l-1.4-4.929h1.059l.948,3.807.995-3.807h1.123l.94,3.771Z" transform="translate(5357.256 3649.805)" fill="#fff"/><path d="M-5276.156-3635.459a1.853,1.853,0,0,1-1.392-.554,2.02,2.02,0,0,1-.537-1.465,1.99,1.99,0,0,1,.54-1.459,1.88,1.88,0,0,1,1.4-.547,1.941,1.941,0,0,1,1.409.534,1.886,1.886,0,0,1,.551,1.422,2.444,2.444,0,0,1-.028.381h-2.853a.926.926,0,0,0,.282.615.878.878,0,0,0,.628.233.826.826,0,0,0,.763-.424h1.073a1.717,1.717,0,0,1-.657.911A1.959,1.959,0,0,1-5276.156-3635.459Zm.653-2.952a.931.931,0,0,0-.639-.233.882.882,0,0,0-.625.233.988.988,0,0,0-.3.621h1.85A.849.849,0,0,0-5275.5-3638.411Z" transform="translate(5285.45 3640.445)" fill="#fff"/><path d="M-5228.787-3635.467a1.853,1.853,0,0,1-1.392-.554,2.019,2.019,0,0,1-.537-1.465,1.987,1.987,0,0,1,.54-1.458,1.877,1.877,0,0,1,1.4-.547,1.941,1.941,0,0,1,1.409.533,1.887,1.887,0,0,1,.551,1.422,2.377,2.377,0,0,1-.028.381h-2.853a.923.923,0,0,0,.282.615.879.879,0,0,0,.629.233.824.824,0,0,0,.763-.424h1.074a1.73,1.73,0,0,1-.656.911A1.967,1.967,0,0,1-5228.787-3635.467Zm.653-2.952a.931.931,0,0,0-.639-.233.881.881,0,0,0-.626.233.98.98,0,0,0-.3.621h1.85A.853.853,0,0,0-5228.134-3638.419Z" transform="translate(5242.488 3640.452)" fill="#fff"/><path d="M-5182.334-3645.484a2.382,2.382,0,0,1-.717-1.78,2.394,2.394,0,0,1,.716-1.783,2.423,2.423,0,0,1,1.762-.7,2.6,2.6,0,0,1,1.332.339,2.144,2.144,0,0,1,.88.988h-.6a1.581,1.581,0,0,0-.651-.664,1.962,1.962,0,0,0-.96-.233,1.9,1.9,0,0,0-1.412.565,2.028,2.028,0,0,0-.558,1.49,2.031,2.031,0,0,0,.559,1.491,1.9,1.9,0,0,0,1.412.565,1.936,1.936,0,0,0,.96-.237,1.6,1.6,0,0,0,.65-.667h.6a2.141,2.141,0,0,1-.879.99,2.6,2.6,0,0,1-1.332.338A2.427,2.427,0,0,1-5182.334-3645.484Z" transform="translate(5199.258 3649.755)" fill="#fff"/><path d="M-5121.984-3635.062a1.768,1.768,0,0,1-1.349-.55,2.023,2.023,0,0,1-.52-1.445,1.967,1.967,0,0,1,.551-1.448,1.863,1.863,0,0,1,1.377-.554,1.862,1.862,0,0,1,1.377.554,1.956,1.956,0,0,1,.551,1.44,1.918,1.918,0,0,1-.579,1.445A1.954,1.954,0,0,1-5121.984-3635.062Zm0-.4a1.434,1.434,0,0,0,1.039-.431,1.57,1.57,0,0,0,.437-1.176,1.6,1.6,0,0,0-.417-1.172,1.367,1.367,0,0,0-1.017-.427,1.324,1.324,0,0,0-1,.424,1.641,1.641,0,0,0-.4,1.179,1.708,1.708,0,0,0,.382,1.18A1.262,1.262,0,0,0-5121.988-3635.457Z" transform="translate(5145.569 3640.059)" fill="#fff"/><path d="M-5073.178-3639v.628a1.347,1.347,0,0,1,1.277-.7,1.563,1.563,0,0,1,.823.219,1.31,1.31,0,0,1,.54.643,1.482,1.482,0,0,1,.569-.636,1.6,1.6,0,0,1,.851-.226,1.476,1.476,0,0,1,1.073.42,1.615,1.615,0,0,1,.431,1.211v2.295h-.486v-2.2a1.376,1.376,0,0,0-.307-.967,1.088,1.088,0,0,0-.841-.333,1.086,1.086,0,0,0-.84.333,1.373,1.373,0,0,0-.307.967v2.2h-.488v-2.2a1.373,1.373,0,0,0-.307-.967,1.091,1.091,0,0,0-.841-.333,1.091,1.091,0,0,0-.841.333,1.379,1.379,0,0,0-.307.968v2.2h-.494V-3639Z" transform="translate(5100.056 3640.071)" fill="#fff"/><path d="M-4995.544-3639.081a1.791,1.791,0,0,1,1.338.54,1.954,1.954,0,0,1,.526,1.426,2.066,2.066,0,0,1-.529,1.459,1.742,1.742,0,0,1-1.334.572,1.644,1.644,0,0,1-.918-.258,1.583,1.583,0,0,1-.586-.66v2.67h-.494v-5.678h.494v.84a1.582,1.582,0,0,1,.586-.657A1.661,1.661,0,0,1-4995.544-3639.081Zm-.078,3.573a1.342,1.342,0,0,0,1.015-.448,1.626,1.626,0,0,0,.419-1.159,1.522,1.522,0,0,0-.417-1.125,1.382,1.382,0,0,0-1.014-.417,1.354,1.354,0,0,0-1.014.434,1.58,1.58,0,0,0-.417,1.14,1.578,1.578,0,0,0,.417,1.14A1.345,1.345,0,0,0-4995.622-3635.508Z" transform="translate(5031.009 3640.079)" fill="#fff"/><path d="M-4949.422-3635.664a2.063,2.063,0,0,1-.529-1.458,1.963,1.963,0,0,1,.525-1.427,1.791,1.791,0,0,1,1.339-.541,1.666,1.666,0,0,1,.918.254,1.576,1.576,0,0,1,.586.656v-.84h.5v3.856h-.5v-.848a1.6,1.6,0,0,1-.585.661,1.645,1.645,0,0,1-.919.257A1.745,1.745,0,0,1-4949.422-3635.664Zm2.419-.286a1.572,1.572,0,0,0,.42-1.142,1.568,1.568,0,0,0-.42-1.139,1.362,1.362,0,0,0-1.014-.435,1.374,1.374,0,0,0-1.01.417,1.519,1.519,0,0,0-.416,1.126,1.627,1.627,0,0,0,.42,1.159,1.337,1.337,0,0,0,1.01.447A1.353,1.353,0,0,0-4947-3635.95Z" transform="translate(4987.847 3640.086)" fill="#fff"/><path d="M-4896.554-3639.028v.628a1.347,1.347,0,0,1,1.278-.7,1.476,1.476,0,0,1,1.073.42,1.613,1.613,0,0,1,.431,1.211v2.295h-.487v-2.2a1.38,1.38,0,0,0-.307-.967,1.089,1.089,0,0,0-.841-.332,1.084,1.084,0,0,0-.839.332,1.373,1.373,0,0,0-.308.967v2.2h-.495v-3.856Z" transform="translate(4939.866 3640.095)" fill="#fff"/><path d="M-4856.922-3634.551l-1.533-3.8h.529l1.271,3.277,1.271-3.277h.5l-2.287,5.649h-.5Z" transform="translate(4904.863 3639.416)" fill="#fff"/></g><g transform="translate(50.162 1.062)"><path d="M-4817.938-3638.221a.6.6,0,0,1,.44-.172.6.6,0,0,1,.442.172.612.612,0,0,1,.167.446.6.6,0,0,1-.17.445.592.592,0,0,1-.44.172.585.585,0,0,1-.437-.172.608.608,0,0,1-.171-.444A.619.619,0,0,1-4817.938-3638.221Zm.054.842a.516.516,0,0,0,.386.15.521.521,0,0,0,.389-.15.561.561,0,0,0,.142-.4.555.555,0,0,0-.142-.4.523.523,0,0,0-.389-.148.52.52,0,0,0-.386.148.556.556,0,0,0-.144.4A.563.563,0,0,0-4817.885-3637.378Zm.14-.816h.263a.294.294,0,0,1,.207.067.206.206,0,0,1,.075.162.253.253,0,0,1-.053.159.244.244,0,0,1-.16.08l.222.336h-.13l-.21-.331h-.109v.331h-.1Zm.1.082v.308h.159c.114,0,.172-.052.172-.154s-.059-.155-.172-.155Z" transform="translate(4818.106 3638.393)" fill="#fff"/></g></g></g><g transform="translate(416 6695.449)"><path d="M215,335.427,254.537,321v7.45L215,335.427Z" transform="translate(-215 -321)" fill="#fff" fill-rule="evenodd"/><path d="M268.748,406.2l-2.417,4.67L263.9,406.2h-4.724l4.978,8.649v5.633h4.27v-5.633l5-8.649Z" transform="translate(-249.47 -387.488)" fill="#fff" fill-rule="evenodd"/><path d="M220.428,414.851h5.178v-3h-5.178v-2.362h5.723l-1.89-3.289h-8.1v14.281h11.411V417.2h-7.141v-2.344Z" transform="translate(-215.904 -387.488)" fill="#fff" fill-rule="evenodd"/></g></g></svg>