<svg xmlns="http://www.w3.org/2000/svg" width="44.941" height="44.941" viewBox="0 0 44.941 44.941"><g transform="translate(0.5 0.5)"><path d="M641.971-44a21.973,21.973,0,0,1,21.971,21.971A21.973,21.973,0,0,1,641.971-.059,21.973,21.973,0,0,1,620-22.029,21.973,21.973,0,0,1,641.971-44Z" transform="translate(-620 44)" fill="#fff" stroke="#000" stroke-width="1"/><path d="M735.456,115.366q-.015.342-.015.687a15.021,15.021,0,0,0,15.124,15.124h0a15.046,15.046,0,0,0,8.148-2.388,10.812,10.812,0,0,1-1.268.074,10.666,10.666,0,0,1-6.6-2.275,5.322,5.322,0,0,0,4.966-3.692,5.295,5.295,0,0,1-2.4-.091,5.317,5.317,0,0,0,4.264-5.21c0-.024,0-.046,0-.068a5.279,5.279,0,0,1-2.408.665,5.32,5.32,0,0,0,1.646-7.1,15.092,15.092,0,0,1-10.957,5.554A5.318,5.318,0,0,0,736.9,111.8a10.664,10.664,0,0,1-3.375-1.29,5.337,5.337,0,0,0,2.338,2.94,10.6,10.6,0,0,1-3.052-.837A10.805,10.805,0,0,0,735.456,115.366Z" transform="translate(-723.466 -98.648)"/></g></svg>